<svg xmlns="http://www.w3.org/2000/svg" viewBox="0 0 128 128">
<!-- recognizer:v4-fallback category=F2L case=F2L_8 -->
<rect x="0" y="0" width="128" height="128" fill="#D8DADF"/>
<rect x="28" y="28" width="24" height="24" fill="#8E939B" stroke="#11151B" stroke-width="1.4"/>
<rect x="52" y="28" width="24" height="24" fill="#FDFF00" stroke="#11151B" stroke-width="1.4"/>
<rect x="76" y="28" width="24" height="24" fill="#FDFF00" stroke="#11151B" stroke-width="1.4"/>
<rect x="28" y="52" width="24" height="24" fill="#8E939B" stroke="#11151B" stroke-width="1.4"/>
<rect x="52" y="52" width="24" height="24" fill="#8E939B" stroke="#11151B" stroke-width="1.4"/>
<rect x="76" y="52" width="24" height="24" fill="#FDFF00" stroke="#11151B" stroke-width="1.4"/>
<rect x="28" y="76" width="24" height="24" fill="#FDFF00" stroke="#11151B" stroke-width="1.4"/>
<rect x="52" y="76" width="24" height="24" fill="#FDFF00" stroke="#11151B" stroke-width="1.4"/>
<rect x="76" y="76" width="24" height="24" fill="#FDFF00" stroke="#11151B" stroke-width="1.4"/>
<rect x="28" y="28" width="72" height="72" fill="none" stroke="#11151B" stroke-width="1.9"/>
<rect x="79.00" y="18.00" width="18.00" height="4.00" fill="#FDFF00" stroke="#11151B" stroke-width="1.0"/>
<rect x="31.00" y="106.00" width="18.00" height="4.00" fill="#FDFF00" stroke="#11151B" stroke-width="1.0"/>
<rect x="55.00" y="106.00" width="18.00" height="4.00" fill="#FDFF00" stroke="#11151B" stroke-width="1.0"/>
<rect x="18.00" y="31.00" width="4.00" height="18.00" fill="#FDFF00" stroke="#11151B" stroke-width="1.0"/>
<rect x="106.00" y="79.00" width="4.00" height="18.00" fill="#FDFF00" stroke="#11151B" stroke-width="1.0"/>
</svg>