<svg xmlns="http://www.w3.org/2000/svg" viewBox="0 0 128 128">
<!-- recognizer:v5-f2l category=F2L case=A18 -->
<rect x="0" y="0" width="128" height="128" fill="#D8DADF"/>
<rect x="12" y="8" width="16" height="16" fill="#0B1220" stroke="#11151B" stroke-width="1.4"/>
<rect x="28" y="8" width="16" height="16" fill="#E06A00" stroke="#11151B" stroke-width="1.4"/>
<rect x="44" y="8" width="16" height="16" fill="#E06A00" stroke="#11151B" stroke-width="1.4"/>
<rect x="12" y="24" width="16" height="16" fill="#0B1220" stroke="#11151B" stroke-width="1.4"/>
<rect x="28" y="24" width="16" height="16" fill="#0B1220" stroke="#11151B" stroke-width="1.4"/>
<rect x="44" y="24" width="16" height="16" fill="#0B1220" stroke="#11151B" stroke-width="1.4"/>
<rect x="12" y="40" width="16" height="16" fill="#0B1220" stroke="#11151B" stroke-width="1.4"/>
<rect x="28" y="40" width="16" height="16" fill="#0B1220" stroke="#11151B" stroke-width="1.4"/>
<rect x="44" y="40" width="16" height="16" fill="#C1121F" stroke="#11151B" stroke-width="1.4"/>
<rect x="12" y="8" width="48" height="48" fill="none" stroke="#11151B" stroke-width="1.9"/>
<rect x="12" y="60" width="16" height="16" fill="#C1121F" stroke="#11151B" stroke-width="1.4"/>
<rect x="28" y="60" width="16" height="16" fill="#C1121F" stroke="#11151B" stroke-width="1.4"/>
<rect x="44" y="60" width="16" height="16" fill="#F4F4F4" stroke="#11151B" stroke-width="1.4"/>
<rect x="12" y="76" width="16" height="16" fill="#E06A00" stroke="#11151B" stroke-width="1.4"/>
<rect x="28" y="76" width="16" height="16" fill="#E06A00" stroke="#11151B" stroke-width="1.4"/>
<rect x="44" y="76" width="16" height="16" fill="#2B63E8" stroke="#11151B" stroke-width="1.4"/>
<rect x="12" y="92" width="16" height="16" fill="#E06A00" stroke="#11151B" stroke-width="1.4"/>
<rect x="28" y="92" width="16" height="16" fill="#E06A00" stroke="#11151B" stroke-width="1.4"/>
<rect x="44" y="92" width="16" height="16" fill="#2B63E8" stroke="#11151B" stroke-width="1.4"/>
<rect x="12" y="60" width="48" height="48" fill="none" stroke="#11151B" stroke-width="1.9"/>
<rect x="64" y="60" width="16" height="16" fill="#2B63E8" stroke="#11151B" stroke-width="1.4"/>
<rect x="80" y="60" width="16" height="16" fill="#E06A00" stroke="#11151B" stroke-width="1.4"/>
<rect x="96" y="60" width="16" height="16" fill="#F4F4F4" stroke="#11151B" stroke-width="1.4"/>
<rect x="64" y="76" width="16" height="16" fill="#C1121F" stroke="#11151B" stroke-width="1.4"/>
<rect x="80" y="76" width="16" height="16" fill="#2DBE4A" stroke="#11151B" stroke-width="1.4"/>
<rect x="96" y="76" width="16" height="16" fill="#2DBE4A" stroke="#11151B" stroke-width="1.4"/>
<rect x="64" y="92" width="16" height="16" fill="#C1121F" stroke="#11151B" stroke-width="1.4"/>
<rect x="80" y="92" width="16" height="16" fill="#2DBE4A" stroke="#11151B" stroke-width="1.4"/>
<rect x="96" y="92" width="16" height="16" fill="#2DBE4A" stroke="#11151B" stroke-width="1.4"/>
<rect x="64" y="60" width="48" height="48" fill="none" stroke="#11151B" stroke-width="1.9"/>
</svg>