<svg xmlns="http://www.w3.org/2000/svg" viewBox="0 0 128 128">
<!-- recognizer:v10-f2l category=F2L case=E02 -->
<rect x="0" y="0" width="128" height="128" fill="#D8DADF"/>
<polygon points="64.00,64.00 104.00,42.00 64.00,20.00 24.00,42.00" fill="#0B1220" stroke="#11151B" stroke-width="1.15" stroke-linejoin="round"/>
<polygon points="24.00,42.00 64.00,20.00 64.00,64.00 24.00,86.00" fill="#0B1220" stroke="#11151B" stroke-width="1.15" stroke-linejoin="round"/>
<polygon points="64.00,20.00 104.00,42.00 104.00,86.00 64.00,64.00" fill="#0B1220" stroke="#11151B" stroke-width="1.15" stroke-linejoin="round"/>
<polygon points="24.00,42.00 37.33,34.67 37.33,49.33 24.00,56.67" fill="#3F516D" stroke="#344660" stroke-width="1.05" stroke-linejoin="round"/>
<polygon points="25.47,42.81 35.87,37.09 35.87,48.53 25.47,54.25" fill="#0B1220" stroke="#11151B" stroke-width="1.05" stroke-linejoin="round"/>
<polygon points="37.33,34.67 50.67,27.33 50.67,42.00 37.33,49.33" fill="#3F516D" stroke="#344660" stroke-width="1.05" stroke-linejoin="round"/>
<polygon points="38.80,35.47 49.20,29.75 49.20,41.19 38.80,46.91" fill="#0B1220" stroke="#11151B" stroke-width="1.05" stroke-linejoin="round"/>
<polygon points="50.67,27.33 64.00,20.00 64.00,34.67 50.67,42.00" fill="#3F516D" stroke="#344660" stroke-width="1.05" stroke-linejoin="round"/>
<polygon points="52.13,28.14 62.53,22.42 62.53,33.86 52.13,39.58" fill="#0B1220" stroke="#11151B" stroke-width="1.05" stroke-linejoin="round"/>
<polygon points="24.00,56.67 37.33,49.33 37.33,64.00 24.00,71.33" fill="#3F516D" stroke="#344660" stroke-width="1.05" stroke-linejoin="round"/>
<polygon points="25.47,57.47 35.87,51.75 35.87,63.19 25.47,68.91" fill="#2DBE4A" stroke="#11151B" stroke-width="1.05" stroke-linejoin="round"/>
<polygon points="37.33,49.33 50.67,42.00 50.67,56.67 37.33,64.00" fill="#3F516D" stroke="#344660" stroke-width="1.05" stroke-linejoin="round"/>
<polygon points="38.80,50.14 49.20,44.42 49.20,55.86 38.80,61.58" fill="#2DBE4A" stroke="#11151B" stroke-width="1.05" stroke-linejoin="round"/>
<polygon points="50.67,42.00 64.00,34.67 64.00,49.33 50.67,56.67" fill="#3F516D" stroke="#344660" stroke-width="1.05" stroke-linejoin="round"/>
<polygon points="52.13,42.81 62.53,37.09 62.53,48.53 52.13,54.25" fill="#0B1220" stroke="#11151B" stroke-width="1.05" stroke-linejoin="round"/>
<polygon points="24.00,71.33 37.33,64.00 37.33,78.67 24.00,86.00" fill="#3F516D" stroke="#344660" stroke-width="1.05" stroke-linejoin="round"/>
<polygon points="25.47,72.14 35.87,66.42 35.87,77.86 25.47,83.58" fill="#2DBE4A" stroke="#11151B" stroke-width="1.05" stroke-linejoin="round"/>
<polygon points="37.33,64.00 50.67,56.67 50.67,71.33 37.33,78.67" fill="#3F516D" stroke="#344660" stroke-width="1.05" stroke-linejoin="round"/>
<polygon points="38.80,64.81 49.20,59.09 49.20,70.53 38.80,76.25" fill="#2DBE4A" stroke="#11151B" stroke-width="1.05" stroke-linejoin="round"/>
<polygon points="50.67,56.67 64.00,49.33 64.00,64.00 50.67,71.33" fill="#3F516D" stroke="#344660" stroke-width="1.05" stroke-linejoin="round"/>
<polygon points="52.13,57.47 62.53,51.75 62.53,63.19 52.13,68.91" fill="#2DBE4A" stroke="#11151B" stroke-width="1.05" stroke-linejoin="round"/>
<polygon points="64.00,20.00 77.33,27.33 77.33,42.00 64.00,34.67" fill="#3F516D" stroke="#344660" stroke-width="1.05" stroke-linejoin="round"/>
<polygon points="65.47,22.42 75.87,28.14 75.87,39.58 65.47,33.86" fill="#0B1220" stroke="#11151B" stroke-width="1.05" stroke-linejoin="round"/>
<polygon points="77.33,27.33 90.67,34.67 90.67,49.33 77.33,42.00" fill="#3F516D" stroke="#344660" stroke-width="1.05" stroke-linejoin="round"/>
<polygon points="78.80,29.75 89.20,35.47 89.20,46.91 78.80,41.19" fill="#0B1220" stroke="#11151B" stroke-width="1.05" stroke-linejoin="round"/>
<polygon points="90.67,34.67 104.00,42.00 104.00,56.67 90.67,49.33" fill="#3F516D" stroke="#344660" stroke-width="1.05" stroke-linejoin="round"/>
<polygon points="92.13,37.09 102.53,42.81 102.53,54.25 92.13,48.53" fill="#0B1220" stroke="#11151B" stroke-width="1.05" stroke-linejoin="round"/>
<polygon points="64.00,34.67 77.33,42.00 77.33,56.67 64.00,49.33" fill="#3F516D" stroke="#344660" stroke-width="1.05" stroke-linejoin="round"/>
<polygon points="65.47,37.09 75.87,42.81 75.87,54.25 65.47,48.53" fill="#0B1220" stroke="#11151B" stroke-width="1.05" stroke-linejoin="round"/>
<polygon points="77.33,42.00 90.67,49.33 90.67,64.00 77.33,56.67" fill="#3F516D" stroke="#344660" stroke-width="1.05" stroke-linejoin="round"/>
<polygon points="78.80,44.42 89.20,50.14 89.20,61.58 78.80,55.86" fill="#C1121F" stroke="#11151B" stroke-width="1.05" stroke-linejoin="round"/>
<polygon points="90.67,49.33 104.00,56.67 104.00,71.33 90.67,64.00" fill="#3F516D" stroke="#344660" stroke-width="1.05" stroke-linejoin="round"/>
<polygon points="92.13,51.75 102.53,57.47 102.53,68.91 92.13,63.19" fill="#2DBE4A" stroke="#11151B" stroke-width="1.05" stroke-linejoin="round"/>
<polygon points="64.00,49.33 77.33,56.67 77.33,71.33 64.00,64.00" fill="#3F516D" stroke="#344660" stroke-width="1.05" stroke-linejoin="round"/>
<polygon points="65.47,51.75 75.87,57.47 75.87,68.91 65.47,63.19" fill="#C1121F" stroke="#11151B" stroke-width="1.05" stroke-linejoin="round"/>
<polygon points="77.33,56.67 90.67,64.00 90.67,78.67 77.33,71.33" fill="#3F516D" stroke="#344660" stroke-width="1.05" stroke-linejoin="round"/>
<polygon points="78.80,59.09 89.20,64.81 89.20,76.25 78.80,70.53" fill="#C1121F" stroke="#11151B" stroke-width="1.05" stroke-linejoin="round"/>
<polygon points="90.67,64.00 104.00,71.33 104.00,86.00 90.67,78.67" fill="#3F516D" stroke="#344660" stroke-width="1.05" stroke-linejoin="round"/>
<polygon points="92.13,66.42 102.53,72.14 102.53,83.58 92.13,77.86" fill="#0B1220" stroke="#11151B" stroke-width="1.05" stroke-linejoin="round"/>
<polygon points="64.00,64.00 77.33,56.67 64.00,49.33 50.67,56.67" fill="#3F516D" stroke="#344660" stroke-width="1.05" stroke-linejoin="round"/>
<polygon points="64.00,62.39 74.40,56.67 64.00,50.95 53.60,56.67" fill="#0B1220" stroke="#11151B" stroke-width="1.05" stroke-linejoin="round"/>
<polygon points="77.33,56.67 90.67,49.33 77.33,42.00 64.00,49.33" fill="#3F516D" stroke="#344660" stroke-width="1.05" stroke-linejoin="round"/>
<polygon points="77.33,55.05 87.73,49.33 77.33,43.61 66.93,49.33" fill="#0B1220" stroke="#11151B" stroke-width="1.05" stroke-linejoin="round"/>
<polygon points="90.67,49.33 104.00,42.00 90.67,34.67 77.33,42.00" fill="#3F516D" stroke="#344660" stroke-width="1.05" stroke-linejoin="round"/>
<polygon points="90.67,47.72 101.07,42.00 90.67,36.28 80.27,42.00" fill="#0B1220" stroke="#11151B" stroke-width="1.05" stroke-linejoin="round"/>
<polygon points="50.67,56.67 64.00,49.33 50.67,42.00 37.33,49.33" fill="#3F516D" stroke="#344660" stroke-width="1.05" stroke-linejoin="round"/>
<polygon points="50.67,55.05 61.07,49.33 50.67,43.61 40.27,49.33" fill="#0B1220" stroke="#11151B" stroke-width="1.05" stroke-linejoin="round"/>
<polygon points="64.00,49.33 77.33,42.00 64.00,34.67 50.67,42.00" fill="#3F516D" stroke="#344660" stroke-width="1.05" stroke-linejoin="round"/>
<polygon points="64.00,47.72 74.40,42.00 64.00,36.28 53.60,42.00" fill="#0B1220" stroke="#11151B" stroke-width="1.05" stroke-linejoin="round"/>
<polygon points="77.33,42.00 90.67,34.67 77.33,27.33 64.00,34.67" fill="#3F516D" stroke="#344660" stroke-width="1.05" stroke-linejoin="round"/>
<polygon points="77.33,40.39 87.73,34.67 77.33,28.95 66.93,34.67" fill="#0B1220" stroke="#11151B" stroke-width="1.05" stroke-linejoin="round"/>
<polygon points="37.33,49.33 50.67,42.00 37.33,34.67 24.00,42.00" fill="#3F516D" stroke="#344660" stroke-width="1.05" stroke-linejoin="round"/>
<polygon points="37.33,47.72 47.73,42.00 37.33,36.28 26.93,42.00" fill="#2B63E8" stroke="#11151B" stroke-width="1.05" stroke-linejoin="round"/>
<polygon points="50.67,42.00 64.00,34.67 50.67,27.33 37.33,34.67" fill="#3F516D" stroke="#344660" stroke-width="1.05" stroke-linejoin="round"/>
<polygon points="50.67,40.39 61.07,34.67 50.67,28.95 40.27,34.67" fill="#2B63E8" stroke="#11151B" stroke-width="1.05" stroke-linejoin="round"/>
<polygon points="64.00,34.67 77.33,27.33 64.00,20.00 50.67,27.33" fill="#3F516D" stroke="#344660" stroke-width="1.05" stroke-linejoin="round"/>
<polygon points="64.00,33.05 74.40,27.33 64.00,21.61 53.60,27.33" fill="#0B1220" stroke="#11151B" stroke-width="1.05" stroke-linejoin="round"/>
</svg>