<svg xmlns="http://www.w3.org/2000/svg" viewBox="0 0 128 128">
<!-- recognizer:v1-zbll category=ZBLL case=ZBLL_T56 -->
<rect x="0" y="0" width="128" height="128" fill="#D8DADF"/>
<polygon points="90.67,78.67 104.00,71.33 104.00,86.00 90.67,93.33" fill="#3F516D" stroke="#344660" stroke-width="1.05" stroke-linejoin="round" data-layer="cubie" data-face="R" data-pos="1,-1,-1"/>
<polygon points="92.13,79.47 102.53,73.75 102.53,85.19 92.13,90.91" fill="#C1121F" stroke="#11151B" stroke-width="0.95" stroke-linejoin="round" data-layer="sticker" data-face="R" data-pos="1,-1,-1"/>
<polygon points="64.00,20.00 77.33,27.33 64.00,34.67 50.67,27.33" fill="#3F516D" stroke="#344660" stroke-width="1.05" stroke-linejoin="round" data-layer="cubie" data-face="U" data-pos="1,1,1"/>
<polygon points="64.00,21.61 74.40,27.33 64.00,33.05 53.60,27.33" fill="#C1121F" stroke="#11151B" stroke-width="0.95" stroke-linejoin="round" data-layer="sticker" data-face="U" data-pos="1,1,1"/>
<polygon points="24.00,71.33 37.33,78.67 37.33,93.33 24.00,86.00" fill="#3F516D" stroke="#344660" stroke-width="1.05" stroke-linejoin="round" data-layer="cubie" data-face="F" data-pos="-1,1,-1"/>
<polygon points="25.47,73.75 35.87,79.47 35.87,90.91 25.47,85.19" fill="#2DBE4A" stroke="#11151B" stroke-width="0.95" stroke-linejoin="round" data-layer="sticker" data-face="F" data-pos="-1,1,-1"/>
<polygon points="90.67,64.00 104.00,56.67 104.00,71.33 90.67,78.67" fill="#3F516D" stroke="#344660" stroke-width="1.05" stroke-linejoin="round" data-layer="cubie" data-face="R" data-pos="1,-1,0"/>
<polygon points="92.13,64.81 102.53,59.09 102.53,70.53 92.13,76.25" fill="#C1121F" stroke="#11151B" stroke-width="0.95" stroke-linejoin="round" data-layer="sticker" data-face="R" data-pos="1,-1,0"/>
<polygon points="77.33,86.00 90.67,78.67 90.67,93.33 77.33,100.67" fill="#3F516D" stroke="#344660" stroke-width="1.05" stroke-linejoin="round" data-layer="cubie" data-face="R" data-pos="0,-1,-1"/>
<polygon points="78.80,86.81 89.20,81.09 89.20,92.53 78.80,98.25" fill="#C1121F" stroke="#11151B" stroke-width="0.95" stroke-linejoin="round" data-layer="sticker" data-face="R" data-pos="0,-1,-1"/>
<polygon points="77.33,27.33 90.67,34.67 77.33,42.00 64.00,34.67" fill="#3F516D" stroke="#344660" stroke-width="1.05" stroke-linejoin="round" data-layer="cubie" data-face="U" data-pos="1,0,1"/>
<polygon points="77.33,28.95 87.73,34.67 77.33,40.39 66.93,34.67" fill="#FDFF00" stroke="#11151B" stroke-width="0.95" stroke-linejoin="round" data-layer="sticker" data-face="U" data-pos="1,0,1"/>
<polygon points="50.67,27.33 64.00,34.67 50.67,42.00 37.33,34.67" fill="#3F516D" stroke="#344660" stroke-width="1.05" stroke-linejoin="round" data-layer="cubie" data-face="U" data-pos="0,1,1"/>
<polygon points="50.67,28.95 61.07,34.67 50.67,40.39 40.27,34.67" fill="#FDFF00" stroke="#11151B" stroke-width="0.95" stroke-linejoin="round" data-layer="sticker" data-face="U" data-pos="0,1,1"/>
<polygon points="37.33,78.67 50.67,86.00 50.67,100.67 37.33,93.33" fill="#3F516D" stroke="#344660" stroke-width="1.05" stroke-linejoin="round" data-layer="cubie" data-face="F" data-pos="-1,0,-1"/>
<polygon points="38.80,81.09 49.20,86.81 49.20,98.25 38.80,92.53" fill="#2DBE4A" stroke="#11151B" stroke-width="0.95" stroke-linejoin="round" data-layer="sticker" data-face="F" data-pos="-1,0,-1"/>
<polygon points="24.00,56.67 37.33,64.00 37.33,78.67 24.00,71.33" fill="#3F516D" stroke="#344660" stroke-width="1.05" stroke-linejoin="round" data-layer="cubie" data-face="F" data-pos="-1,1,0"/>
<polygon points="25.47,59.09 35.87,64.81 35.87,76.25 25.47,70.53" fill="#2DBE4A" stroke="#11151B" stroke-width="0.95" stroke-linejoin="round" data-layer="sticker" data-face="F" data-pos="-1,1,0"/>
<polygon points="90.67,49.33 104.00,42.00 104.00,56.67 90.67,64.00" fill="#3F516D" stroke="#344660" stroke-width="1.05" stroke-linejoin="round" data-layer="cubie" data-face="R" data-pos="1,-1,1"/>
<polygon points="92.13,50.14 102.53,44.42 102.53,55.86 92.13,61.58" fill="#FDFF00" stroke="#11151B" stroke-width="0.95" stroke-linejoin="round" data-layer="sticker" data-face="R" data-pos="1,-1,1"/>
<polygon points="90.67,34.67 104.00,42.00 90.67,49.33 77.33,42.00" fill="#3F516D" stroke="#344660" stroke-width="1.05" stroke-linejoin="round" data-layer="cubie" data-face="U" data-pos="1,-1,1"/>
<polygon points="90.67,36.28 101.07,42.00 90.67,47.72 80.27,42.00" fill="#E06A00" stroke="#11151B" stroke-width="0.95" stroke-linejoin="round" data-layer="sticker" data-face="U" data-pos="1,-1,1"/>
<polygon points="77.33,71.33 90.67,64.00 90.67,78.67 77.33,86.00" fill="#3F516D" stroke="#344660" stroke-width="1.05" stroke-linejoin="round" data-layer="cubie" data-face="R" data-pos="0,-1,0"/>
<polygon points="78.80,72.14 89.20,66.42 89.20,77.86 78.80,83.58" fill="#C1121F" stroke="#11151B" stroke-width="0.95" stroke-linejoin="round" data-layer="sticker" data-face="R" data-pos="0,-1,0"/>
<polygon points="64.00,93.33 77.33,86.00 77.33,100.67 64.00,108.00" fill="#3F516D" stroke="#344660" stroke-width="1.05" stroke-linejoin="round" data-layer="cubie" data-face="R" data-pos="-1,-1,-1"/>
<polygon points="65.47,94.14 75.87,88.42 75.87,99.86 65.47,105.58" fill="#C1121F" stroke="#11151B" stroke-width="0.95" stroke-linejoin="round" data-layer="sticker" data-face="R" data-pos="-1,-1,-1"/>
<polygon points="64.00,34.67 77.33,42.00 64.00,49.33 50.67,42.00" fill="#3F516D" stroke="#344660" stroke-width="1.05" stroke-linejoin="round" data-layer="cubie" data-face="U" data-pos="0,0,1"/>
<polygon points="64.00,36.28 74.40,42.00 64.00,47.72 53.60,42.00" fill="#FDFF00" stroke="#11151B" stroke-width="0.95" stroke-linejoin="round" data-layer="sticker" data-face="U" data-pos="0,0,1"/>
<polygon points="50.67,86.00 64.00,93.33 64.00,108.00 50.67,100.67" fill="#3F516D" stroke="#344660" stroke-width="1.05" stroke-linejoin="round" data-layer="cubie" data-face="F" data-pos="-1,-1,-1"/>
<polygon points="52.13,88.42 62.53,94.14 62.53,105.58 52.13,99.86" fill="#2DBE4A" stroke="#11151B" stroke-width="0.95" stroke-linejoin="round" data-layer="sticker" data-face="F" data-pos="-1,-1,-1"/>
<polygon points="37.33,64.00 50.67,71.33 50.67,86.00 37.33,78.67" fill="#3F516D" stroke="#344660" stroke-width="1.05" stroke-linejoin="round" data-layer="cubie" data-face="F" data-pos="-1,0,0"/>
<polygon points="38.80,66.42 49.20,72.14 49.20,83.58 38.80,77.86" fill="#2DBE4A" stroke="#11151B" stroke-width="0.95" stroke-linejoin="round" data-layer="sticker" data-face="F" data-pos="-1,0,0"/>
<polygon points="37.33,34.67 50.67,42.00 37.33,49.33 24.00,42.00" fill="#3F516D" stroke="#344660" stroke-width="1.05" stroke-linejoin="round" data-layer="cubie" data-face="U" data-pos="-1,1,1"/>
<polygon points="37.33,36.28 47.73,42.00 37.33,47.72 26.93,42.00" fill="#FDFF00" stroke="#11151B" stroke-width="0.95" stroke-linejoin="round" data-layer="sticker" data-face="U" data-pos="-1,1,1"/>
<polygon points="24.00,42.00 37.33,49.33 37.33,64.00 24.00,56.67" fill="#3F516D" stroke="#344660" stroke-width="1.05" stroke-linejoin="round" data-layer="cubie" data-face="F" data-pos="-1,1,1"/>
<polygon points="25.47,44.42 35.87,50.14 35.87,61.58 25.47,55.86" fill="#C1121F" stroke="#11151B" stroke-width="0.95" stroke-linejoin="round" data-layer="sticker" data-face="F" data-pos="-1,1,1"/>
<polygon points="77.33,56.67 90.67,49.33 90.67,64.00 77.33,71.33" fill="#3F516D" stroke="#344660" stroke-width="1.05" stroke-linejoin="round" data-layer="cubie" data-face="R" data-pos="0,-1,1"/>
<polygon points="78.80,57.47 89.20,51.75 89.20,63.19 78.80,68.91" fill="#2DBE4A" stroke="#11151B" stroke-width="0.95" stroke-linejoin="round" data-layer="sticker" data-face="R" data-pos="0,-1,1"/>
<polygon points="77.33,42.00 90.67,49.33 77.33,56.67 64.00,49.33" fill="#3F516D" stroke="#344660" stroke-width="1.05" stroke-linejoin="round" data-layer="cubie" data-face="U" data-pos="0,-1,1"/>
<polygon points="77.33,43.61 87.73,49.33 77.33,55.05 66.93,49.33" fill="#FDFF00" stroke="#11151B" stroke-width="0.95" stroke-linejoin="round" data-layer="sticker" data-face="U" data-pos="0,-1,1"/>
<polygon points="64.00,78.67 77.33,71.33 77.33,86.00 64.00,93.33" fill="#3F516D" stroke="#344660" stroke-width="1.05" stroke-linejoin="round" data-layer="cubie" data-face="R" data-pos="-1,-1,0"/>
<polygon points="65.47,79.47 75.87,73.75 75.87,85.19 65.47,90.91" fill="#C1121F" stroke="#11151B" stroke-width="0.95" stroke-linejoin="round" data-layer="sticker" data-face="R" data-pos="-1,-1,0"/>
<polygon points="50.67,71.33 64.00,78.67 64.00,93.33 50.67,86.00" fill="#3F516D" stroke="#344660" stroke-width="1.05" stroke-linejoin="round" data-layer="cubie" data-face="F" data-pos="-1,-1,0"/>
<polygon points="52.13,73.75 62.53,79.47 62.53,90.91 52.13,85.19" fill="#2DBE4A" stroke="#11151B" stroke-width="0.95" stroke-linejoin="round" data-layer="sticker" data-face="F" data-pos="-1,-1,0"/>
<polygon points="50.67,42.00 64.00,49.33 50.67,56.67 37.33,49.33" fill="#3F516D" stroke="#344660" stroke-width="1.05" stroke-linejoin="round" data-layer="cubie" data-face="U" data-pos="-1,0,1"/>
<polygon points="50.67,43.61 61.07,49.33 50.67,55.05 40.27,49.33" fill="#FDFF00" stroke="#11151B" stroke-width="0.95" stroke-linejoin="round" data-layer="sticker" data-face="U" data-pos="-1,0,1"/>
<polygon points="37.33,49.33 50.67,56.67 50.67,71.33 37.33,64.00" fill="#3F516D" stroke="#344660" stroke-width="1.05" stroke-linejoin="round" data-layer="cubie" data-face="F" data-pos="-1,0,1"/>
<polygon points="38.80,51.75 49.20,57.47 49.20,68.91 38.80,63.19" fill="#C1121F" stroke="#11151B" stroke-width="0.95" stroke-linejoin="round" data-layer="sticker" data-face="F" data-pos="-1,0,1"/>
<polygon points="64.00,64.00 77.33,56.67 77.33,71.33 64.00,78.67" fill="#3F516D" stroke="#344660" stroke-width="1.05" stroke-linejoin="round" data-layer="cubie" data-face="R" data-pos="-1,-1,1"/>
<polygon points="65.47,64.81 75.87,59.09 75.87,70.53 65.47,76.25" fill="#2DBE4A" stroke="#11151B" stroke-width="0.95" stroke-linejoin="round" data-layer="sticker" data-face="R" data-pos="-1,-1,1"/>
<polygon points="64.00,49.33 77.33,56.67 64.00,64.00 50.67,56.67" fill="#3F516D" stroke="#344660" stroke-width="1.05" stroke-linejoin="round" data-layer="cubie" data-face="U" data-pos="-1,-1,1"/>
<polygon points="64.00,50.95 74.40,56.67 64.00,62.39 53.60,56.67" fill="#FDFF00" stroke="#11151B" stroke-width="0.95" stroke-linejoin="round" data-layer="sticker" data-face="U" data-pos="-1,-1,1"/>
<polygon points="50.67,56.67 64.00,64.00 64.00,78.67 50.67,71.33" fill="#3F516D" stroke="#344660" stroke-width="1.05" stroke-linejoin="round" data-layer="cubie" data-face="F" data-pos="-1,-1,1"/>
<polygon points="52.13,59.09 62.53,64.81 62.53,76.25 52.13,70.53" fill="#E06A00" stroke="#11151B" stroke-width="0.95" stroke-linejoin="round" data-layer="sticker" data-face="F" data-pos="-1,-1,1"/>
</svg>