<svg xmlns="http://www.w3.org/2000/svg" viewBox="0 0 64 64" role="img" aria-label="Rubik Motion Lab">
  <defs>
    <linearGradient id="bg" x1="0" y1="0" x2="1" y2="1">
      <stop offset="0" stop-color="#15243a"/>
      <stop offset="1" stop-color="#0b1324"/>
    </linearGradient>
  </defs>

  <rect x="2" y="2" width="60" height="60" rx="12" fill="url(#bg)" stroke="#33475d" stroke-width="1.5"/>

  <g stroke="#1f2937" stroke-linejoin="round">
    <polygon points="32,10 50,20 32,30 14,20" fill="#111827" stroke-width="1.7"/>
    <polygon points="32,30 50,20 50,42 32,54" fill="#111827" stroke-width="1.7"/>
    <polygon points="14,20 32,30 32,54 14,42" fill="#111827" stroke-width="1.7"/>

    <polygon points="32,10 41,15 32,20 23,15" fill="#fde047" stroke-width="1.1"/>
    <polygon points="41,15 50,20 41,25 32,20" fill="#2563eb" stroke-width="1.1"/>
    <polygon points="32,20 41,25 32,30 23,25" fill="#ffffff" stroke-width="1.1"/>
    <polygon points="23,15 32,20 23,25 14,20" fill="#ef4444" stroke-width="1.1"/>

    <polygon points="41,25 50,20 50,31 41,36" fill="#f59e0b" stroke-width="1.1"/>
    <polygon points="41,36 50,31 50,42 41,48" fill="#22c55e" stroke-width="1.1"/>
    <polygon points="32,42 41,36 41,48 32,54" fill="#1d4ed8" stroke-width="1.1"/>
    <polygon points="32,30 41,25 41,36 32,42" fill="#ef4444" stroke-width="1.1"/>

    <polygon points="14,20 23,25 23,36 14,31" fill="#fde047" stroke-width="1.1"/>
    <polygon points="23,25 32,30 32,42 23,36" fill="#22c55e" stroke-width="1.1"/>
    <polygon points="23,36 32,42 32,54 23,48" fill="#ef4444" stroke-width="1.1"/>
    <polygon points="14,31 23,36 23,48 14,42" fill="#f59e0b" stroke-width="1.1"/>
  </g>
</svg>
